<?xml version="1.0" encoding="utf-8"?>
<!-- Generator: Adobe Illustrator 16.0.0, SVG Export Plug-In . SVG Version: 6.00 Build 0)  -->
<!DOCTYPE svg PUBLIC "-//W3C//DTD SVG 1.1//EN" "http://www.w3.org/Graphics/SVG/1.1/DTD/svg11.dtd">
<svg version="1.1" id="Layer_1" xmlns="http://www.w3.org/2000/svg" xmlns:xlink="http://www.w3.org/1999/xlink" x="0px" y="0px"
	 width="1285px" height="180px" viewBox="0 0 1285 180" enable-background="new 0 0 1285 180" xml:space="preserve">
<g>
	<path fill="#2F3033" d="M958.426,48.892c35.707,0,58.43,17.985,58.43,53.334v71.836h-32.861l0.145-14.209
		c-6.573,10.037-20.688,17.713-38.159,17.713c-28.153-0.018-45.31-18.463-45.302-38.469c0-22.857,17.435-35.578,39.423-38.684
		c0,0,36.12-4.34,41.246-5.053c0-15.085-13.869-18.508-27.687-18.508c-14.142,0-25.413,5.013-34.115,10.932l-12.882-22.75
		C920.17,55.345,937.922,48.892,958.426,48.892z"/>
	<path fill="#FFFFFF" d="M952.171,151.949c-11.54,0-17.17-7.271-17.152-14.816c0-9.871,7.25-14.795,16.353-16.088l31.087-4.51v5.715
		C982.458,144.852,967.184,151.957,952.171,151.949z"/>
	<path fill="#2F3033" d="M195.441,65.488c8.967-12.084,22.339-16.361,36.095-16.361c28.564,0,48.948,19.246,48.948,47.553v77.613
		h-33.887v-67.057c0-17.6-9.087-27.291-24.536-27.291c-14.543,0-26.62,9.179-26.62,27.552v66.785h-33.879V2.433h33.879v63.049
		V65.488z"/>
	<path fill="#2F3033" d="M643.989,96.68v77.613h-33.762v-67.057c0-17.6-9.222-27.291-24.531-27.291
		c-14.545,0-26.614,9.179-26.614,27.552v66.785h-33.887v-67.047c0-17.6-9.089-27.291-24.54-27.291
		c-14.545,0-26.618,9.179-26.618,27.552v66.785H440.15V52.396h32.985v14.341c8.951-12.949,22.711-17.603,36.998-17.603
		c18.179,0,33.11,7.923,41.547,20.873c9.732-15.468,26.228-20.873,42.713-20.873C623.991,49.134,643.989,68.372,643.989,96.68z"/>
	<path fill="#2F3033" d="M795.739,113.277c0,36.607-26.234,64.15-60.89,64.15c-17.404,0-29.478-6.783-37.654-16.592v13.447h-33.111
		V2.56h33.766v62.543c8.18-9.556,19.989-15.976,36.868-15.976c34.787,0,61.021,27.549,61.021,64.159V113.277z"/>
	<path fill="#FFFFFF" d="M696.866,113.277c0,19.252,13.113,33.596,32.325,33.596c19.997,0,32.457-14.979,32.457-33.588
		c0-18.621-12.46-33.592-32.457-33.592c-19.212,0-32.325,14.338-32.325,33.592V113.277z"/>
	<path fill="#2F3033" d="M1146.662,72.143l-24.412,19.755c-7.652-7.926-15.848-12.206-26.872-12.206
		c-17.524,0-31.54,13.334-31.54,33.592c0,20.359,13.879,33.588,31.404,33.588c10.915,0,20.262-4.779,27.409-12.336l24.14,19.996
		c-11.821,14.717-29.467,22.895-50.504,22.895c-40.122,0-66.99-27.168-66.99-64.143c0-36.86,26.868-64.159,66.99-64.159
		C1117.324,49.126,1135.102,57.424,1146.662,72.143L1146.662,72.143z"/>
	<polygon fill="#2F3033" points="1276.773,52.396 1231.199,97.959 1283.718,174.283 1242.486,174.283 1207.447,119.109 
		1192.122,134.455 1192.122,174.293 1158.234,174.293 1158.234,2.56 1192.122,2.56 1192.122,97.707 1235.998,52.396 
		1276.783,52.396 	"/>
	<path fill="#2F3033" d="M384.639,161.197c-8.969,12.082-22.342,16.352-36.094,16.352c-28.565,0-48.951-19.234-48.951-47.539V52.396
		h33.89v67.055c0,17.598,9.084,27.287,24.533,27.287c14.542,0,26.622-9.184,26.622-27.545V52.396h33.879v121.887h-33.879v-13.07
		V161.197z"/>
	<path fill="#2F3033" d="M800.203,52.404h18.448V16.171h33.758v36.225h37.555v29.185h-37.555v51.574
		c0,8.535,6.087,13.703,12.769,13.703c7.021,0,16.177-4.273,16.177-4.273l10.907,26.104c0,0-11.605,8.602-37.515,8.602
		c-17.138,0-36.096-12.572-36.096-36.977V81.581h-18.448V52.396V52.404z"/>
	<path fill="#2F3033" d="M93.852,49.067v77.421c-0.012,13.395-3.643,26.52-10.503,38.023l-7.612,12.777l-7.599-12.777
		c-6.863-11.504-10.49-24.629-10.503-38.023V65.475c8.983-12.112,22.404-16.408,36.209-16.408H93.852z"/>
	<rect x="1.282" y="2.433" fill="#2F3033" width="148.922" height="32.831"/>
</g>
</svg>
